<svg width="128" height="128" viewBox="0 0 128 128" fill="none" xmlns="http://www.w3.org/2000/svg">
<g filter="url(#filter0_d_42_225)">
<mask id="mask0_42_225" style="mask-type:alpha" maskUnits="userSpaceOnUse" x="12" y="12" width="104" height="104">
<path d="M115.993 40.6857C115.987 39.6456 115.975 38.6057 115.946 37.5661C115.885 35.3002 115.752 33.0149 115.349 30.7742C114.94 28.5012 114.273 26.3858 113.221 24.3205C112.187 22.2907 110.836 20.4332 109.225 18.8228C107.614 17.2125 105.756 15.8628 103.725 14.8294C101.658 13.7775 99.5401 13.1103 97.2646 12.7017C95.0237 12.2994 92.7377 12.166 90.4718 12.1048C89.4315 12.0766 88.3911 12.0647 87.3505 12.0583C86.1151 12.0507 84.8797 12.0514 83.6444 12.0514L69.3005 12H58.5725L44.4825 12.0514C43.2447 12.0514 42.0069 12.0507 40.7692 12.0583C39.7264 12.0647 38.6841 12.0766 37.6417 12.1048C35.3705 12.166 33.0794 12.2995 30.8332 12.7024C28.5547 13.1108 26.4338 13.7777 24.3637 14.8289C22.3287 15.8624 20.4667 17.2122 18.8522 18.8228C17.238 20.4331 15.8848 22.2902 14.849 24.3197C13.7944 26.3859 13.1257 28.5026 12.716 30.7769C12.3126 33.0166 12.179 35.3012 12.1175 37.5661C12.0895 38.6059 12.0774 39.6457 12.0711 40.6857C12.0635 41.9206 12 43.4545 12 44.6892V58.584V69.427L12.0641 83.617C12.0641 84.8534 12.0636 86.0898 12.0711 87.3261C12.0774 88.3677 12.0895 89.4089 12.1176 90.45C12.179 92.7188 12.3129 95.0075 12.7166 97.2512C13.1262 99.5272 13.7947 101.646 14.8485 103.714C15.8844 105.746 17.2378 107.606 18.8522 109.219C20.4666 110.831 22.3281 112.183 24.3627 113.218C26.4341 114.271 28.5559 114.939 30.8359 115.348C33.081 115.751 35.3714 115.885 37.6417 115.946C38.6841 115.974 39.7265 115.986 40.7693 115.993C42.0071 116 43.2447 116 44.4825 116H58.6998H69.4545H83.6444C84.8797 116 86.1151 116 87.3505 115.993C88.3911 115.986 89.4315 115.974 90.4718 115.946C92.7386 115.885 95.0253 115.751 97.2673 115.348C99.5414 114.939 101.658 114.271 103.724 113.218C105.755 112.183 107.614 110.832 109.225 109.219C110.836 107.606 112.187 105.747 113.221 103.714C114.273 101.646 114.94 99.526 115.349 97.2485C115.752 95.0057 115.885 92.718 115.947 90.45C115.975 89.4088 115.987 88.3675 115.993 87.3261C116 86.0898 116 84.8534 116 83.617C116 83.617 116 69.6775 116 69.427V58.5726C116 58.3876 116 44.3898 116 44.3898C116 43.1552 116 41.9205 115.993 40.6857Z" fill="#8E8E93"/>
</mask>
<g mask="url(#mask0_42_225)">
<path d="M115.993 40.6857C115.987 39.6456 115.975 38.6057 115.946 37.5661C115.885 35.3002 115.752 33.0149 115.349 30.7742C114.94 28.5012 114.273 26.3858 113.221 24.3205C112.187 22.2907 110.836 20.4332 109.225 18.8228C107.614 17.2125 105.756 15.8628 103.725 14.8294C101.658 13.7775 99.5401 13.1103 97.2646 12.7017C95.0237 12.2994 92.7377 12.166 90.4718 12.1048C89.4315 12.0766 88.3911 12.0647 87.3505 12.0583C86.1151 12.0507 84.8797 12.0514 83.6444 12.0514L69.3005 12H58.5725L44.4825 12.0514C43.2447 12.0514 42.0069 12.0507 40.7692 12.0583C39.7264 12.0647 38.6841 12.0766 37.6417 12.1048C35.3705 12.166 33.0794 12.2995 30.8332 12.7024C28.5547 13.1108 26.4338 13.7777 24.3637 14.8289C22.3287 15.8624 20.4667 17.2122 18.8522 18.8228C17.238 20.4331 15.8848 22.2902 14.849 24.3197C13.7944 26.3859 13.1257 28.5026 12.716 30.7769C12.3126 33.0166 12.179 35.3012 12.1175 37.5661C12.0895 38.6059 12.0774 39.6457 12.0711 40.6857C12.0635 41.9206 12 43.4545 12 44.6892V58.584V69.427L12.0641 83.617C12.0641 84.8534 12.0636 86.0898 12.0711 87.3261C12.0774 88.3677 12.0895 89.4089 12.1176 90.45C12.179 92.7188 12.3129 95.0075 12.7166 97.2512C13.1262 99.5272 13.7947 101.646 14.8485 103.714C15.8844 105.746 17.2378 107.606 18.8522 109.219C20.4666 110.831 22.3281 112.183 24.3627 113.218C26.4341 114.271 28.5559 114.939 30.8359 115.348C33.081 115.751 35.3714 115.885 37.6417 115.946C38.6841 115.974 39.7265 115.986 40.7693 115.993C42.0071 116 43.2447 116 44.4825 116H58.6998H69.4545H83.6444C84.8797 116 86.1151 116 87.3505 115.993C88.3911 115.986 89.4315 115.974 90.4718 115.946C92.7386 115.885 95.0253 115.751 97.2673 115.348C99.5414 114.939 101.658 114.271 103.724 113.218C105.755 112.183 107.614 110.832 109.225 109.219C110.836 107.606 112.187 105.747 113.221 103.714C114.273 101.646 114.94 99.526 115.349 97.2485C115.752 95.0057 115.885 92.718 115.947 90.45C115.975 89.4088 115.987 88.3675 115.993 87.3261C116 86.0898 116 84.8534 116 83.617C116 83.617 116 69.6775 116 69.427V58.5726C116 58.3876 116 44.3898 116 44.3898C116 43.1552 116 41.9205 115.993 40.6857Z" fill="url(#paint0_linear_42_225)"/>
<g style="mix-blend-mode:hard-light" filter="url(#filter1_ddiii_42_225)">
<rect x="28" y="38" width="72" height="52" rx="6" fill="url(#paint1_linear_42_225)"/>
</g>
<mask id="mask1_42_225" style="mask-type:alpha" maskUnits="userSpaceOnUse" x="28" y="40" width="72" height="48">
<rect x="100" y="88" width="72" height="48" transform="rotate(-180 100 88)" fill="url(#paint2_linear_42_225)"/>
</mask>
<g mask="url(#mask1_42_225)">
<g style="mix-blend-mode:hard-light" filter="url(#filter2_ddi_42_225)">
<path d="M100 88L28 88L57.4207 59.9803C59.7097 57.8003 60.8542 56.7103 62.1581 56.2897C63.3557 55.9034 64.6443 55.9034 65.8419 56.2897C67.1458 56.7103 68.2903 57.8003 70.5793 59.9803L100 88Z" fill="url(#paint3_linear_42_225)"/>
</g>
</g>
<mask id="mask2_42_225" style="mask-type:alpha" maskUnits="userSpaceOnUse" x="28" y="40" width="72" height="48">
<rect x="28" y="40" width="72" height="48" fill="url(#paint4_linear_42_225)"/>
</mask>
<g mask="url(#mask2_42_225)">
<g style="mix-blend-mode:hard-light" filter="url(#filter3_ddi_42_225)">
<path d="M28 40H100L68.3862 70.1084C66.8602 71.5617 66.0972 72.2884 65.2279 72.5688C64.4296 72.8263 63.5704 72.8263 62.7721 72.5688C61.9028 72.2884 61.1398 71.5617 59.6138 70.1084L28 40Z" fill="url(#paint5_linear_42_225)"/>
</g>
</g>
<path opacity="0.1" d="M116 83.617C115.5 83.617 115.5 83.6169 115.5 83.6168V83.6164V83.6156V83.6144V83.613V83.6113V83.6092V83.6069V83.6042V83.6012V83.598V83.5944V83.5905V83.5863V83.5818V83.577V83.5719V83.5665V83.5608V83.5548V83.5485V83.542V83.5351V83.5279V83.5205V83.5128V83.5047V83.4964V83.4878V83.479V83.4698V83.4604V83.4507V83.4407V83.4304V83.4198V83.409V83.3979V83.3866V83.3749V83.363V83.3508V83.3384V83.3257V83.3127V83.2995V83.286V83.2722V83.2582V83.2439V83.2294V83.2146V83.1995V83.1842V83.1687V83.1529V83.1368V83.1205V83.104V83.0872V83.0701V83.0528V83.0353V83.0175V82.9995V82.9813V82.9628V82.9441V82.9251V82.9059V82.8865V82.8668V82.847V82.8268V82.8065V82.7859V82.7651V82.7441V82.7229V82.7014V82.6797V82.6578V82.6357V82.6134V82.5908V82.5681V82.5451V82.5219V82.4985V82.4749V82.4511V82.4271V82.4028V82.3784V82.3538V82.3289V82.3039V82.2787V82.2532V82.2276V82.2018V82.1757V82.1495V82.1231V82.0965V82.0697V82.0428V82.0156V81.9883V81.9607V81.933V81.9051V81.877V81.8488V81.8203V81.7917V81.7629V81.734V81.7048V81.6755V81.6461V81.6164V81.5866V81.5566V81.5265V81.4961V81.4657V81.435V81.4042V81.3733V81.3421V81.3109V81.2794V81.2479V81.2161V81.1842V81.1522V81.12V81.0876V81.0552V81.0225V80.9897V80.9568V80.9237V80.8905V80.8572V80.8237V80.7901V80.7563V80.7224V80.6884V80.6542V80.6199V80.5855V80.551V80.5163V80.4815V80.4465V80.4115V80.3763V80.341V80.3056V80.2701V80.2344V80.1986V80.1627V80.1267V80.0906V80.0544V80.0181V79.9816V79.9451V79.9084V79.8716V79.8348V79.7978V79.7607V79.7235V79.6863V79.6489V79.6114V79.5739V79.5362V79.4985V79.4606V79.4227V79.3847V79.3465V79.3083V79.2701V79.2317V79.1932V79.1547V79.1161V79.0774V79.0386V78.9998V78.9609V78.9219V78.8828V78.8436V78.8044V78.7651V78.7258V78.6864V78.6469V78.6073V78.5677V78.528V78.4883V78.4485V78.4087V78.3687V78.3288V78.2887V78.2487V78.2085V78.1684V78.1281V78.0879V78.0475V78.0072V77.9668V77.9263V77.8858V77.8452V77.8047V77.764V77.7234V77.6827V77.642V77.6012V77.5604V77.5196V77.4787V77.4378V77.3969V77.356V77.315V77.274V77.233V77.192V77.1509V77.1098V77.0687V77.0276V76.9865V76.9454V76.9042V76.8631V76.8219V76.7807V76.7395V76.6983V76.6571V76.6159V76.5747V76.5335V76.4923V76.4511V76.4099V76.3687V76.3275V76.2863V76.2451V76.2039V76.1628V76.1216V76.0805V76.0393V75.9982V75.9571V75.916V75.875V75.8339V75.7929V75.7519V75.7109V75.67V75.629V75.5881V75.5472V75.5064V75.4656V75.4248V75.384V75.3433V75.3026V75.262V75.2214V75.1808V75.1403V75.0998V75.0594V75.019V74.9786V74.9383V74.898V74.8578V74.8177V74.7775V74.7375V74.6975V74.6575V74.6176V74.5778V74.538V74.4983V74.4587V74.4191V74.3796V74.3401V74.3007V74.2614V74.2221V74.1829V74.1438V74.1048V74.0658V74.0269V73.9881V73.9493V73.9107V73.8721V73.8336V73.7951V73.7568V73.7186V73.6804V73.6423V73.6043V73.5664V73.5286V73.4909V73.4533V73.4157V73.3783V73.341V73.3037V73.2666V73.2295V73.1926V73.1558V73.119V73.0824V73.0459V73.0095V72.9732V72.937V72.9009V72.865V72.8291V72.7934V72.7578V72.7223V72.6869V72.6517V72.6165V72.5815V72.5466V72.5119V72.4772V72.4427V72.4083V72.3741V72.34V72.306V72.2722V72.2384V72.2049V72.1714V72.1381V72.105V72.072V72.0391V72.0064V71.9738V71.9413V71.909V71.8769V71.8449V71.8131V71.7814V71.7499V71.7185V71.6873V71.6562V71.6253V71.5946V71.564V71.5336V71.5033V71.4732V71.4433V71.4135V71.3839V71.3545V71.3253V71.2962V71.2673V71.2386V71.21V71.1817V71.1535V71.1255V71.0976V71.07V71.0425V71.0152V70.9881V70.9612V70.9345V70.908V70.8816V70.8555V70.8295V70.8038V70.7782V70.7529V70.7277V70.7027V70.678V70.6534V70.629V70.6049V70.5809V70.5572V70.5337V70.5103V70.4872V70.4643V70.4416V70.4192V70.3969V70.3749V70.353V70.3314V70.31V70.2889V70.2679V70.2472V70.2267V70.2065V70.1865V70.1667V70.1471V70.1277V70.1086V70.0898V70.0711V70.0527V70.0346V70.0166V69.999V69.9815V69.9643V69.9474V69.9306V69.9142V69.898V69.882V69.8663V69.8508V69.8356V69.8207V69.806V69.7915V69.7773V69.7634V69.7497V69.7363V69.7232V69.7103V69.6977V69.6853V69.6732V69.6614V69.6499V69.6386V69.6276V69.6169V69.6064V69.5963V69.5864V69.5768V69.5674V69.5584V69.5496V69.5411V69.5329V69.525V69.5173V69.51V69.503V69.4962V69.4897V69.4835V69.4777V69.4721V69.4668V69.4618V69.4571V69.4527V69.4486V69.4449V69.4414V69.4382V69.4353V69.4328V69.4305V69.4286V69.427V58.5726V58.5714V58.5698V58.568V58.5658V58.5633V58.5605V58.5574V58.554V58.5502V58.5462V58.5419V58.5372V58.5323V58.5271V58.5215V58.5157V58.5096V58.5031V58.4964V58.4894V58.4821V58.4745V58.4666V58.4584V58.45V58.4412V58.4322V58.4229V58.4133V58.4035V58.3933V58.3829V58.3722V58.3612V58.3499V58.3384V58.3266V58.3146V58.3022V58.2896V58.2768V58.2636V58.2502V58.2366V58.2226V58.2085V58.194V58.1793V58.1644V58.1492V58.1337V58.118V58.102V58.0858V58.0693V58.0526V58.0356V58.0184V58.001V57.9833V57.9654V57.9472V57.9288V57.9101V57.8912V57.8721V57.8527V57.8331V57.8133V57.7933V57.773V57.7525V57.7317V57.7108V57.6896V57.6682V57.6465V57.6247V57.6026V57.5803V57.5578V57.5351V57.5122V57.489V57.4657V57.4421V57.4183V57.3943V57.3701V57.3457V57.3211V57.2963V57.2713V57.2461V57.2207V57.1951V57.1693V57.1433V57.1171V57.0907V57.0641V57.0373V57.0104V56.9832V56.9559V56.9284V56.9007V56.8728V56.8447V56.8165V56.788V56.7594V56.7307V56.7017V56.6726V56.6433V56.6138V56.5841V56.5543V56.5243V56.4942V56.4639V56.4334V56.4027V56.3719V56.3409V56.3098V56.2785V56.2471V56.2155V56.1837V56.1518V56.1198V56.0875V56.0552V56.0227V55.99V55.9572V55.9243V55.8912V55.8579V55.8246V55.7911V55.7574V55.7236V55.6897V55.6556V55.6214V55.5871V55.5527V55.5181V55.4834V55.4485V55.4136V55.3785V55.3433V55.3079V55.2725V55.2369V55.2012V55.1654V55.1294V55.0934V55.0572V55.021V54.9846V54.9481V54.9115V54.8748V54.838V54.8011V54.764V54.7269V54.6897V54.6524V54.615V54.5774V54.5398V54.5021V54.4643V54.4264V54.3884V54.3503V54.3122V54.2739V54.2356V54.1972V54.1586V54.1201V54.0814V54.0426V54.0038V53.9649V53.9259V53.8868V53.8477V53.8085V53.7692V53.7299V53.6905V53.651V53.6114V53.5718V53.5322V53.4924V53.4526V53.4127V53.3728V53.3328V53.2928V53.2527V53.2126V53.1724V53.1321V53.0918V53.0515V53.0111V52.9707V52.9302V52.8896V52.8491V52.8085V52.7678V52.7271V52.6864V52.6456V52.6048V52.564V52.5231V52.4822V52.4413V52.4003V52.3593V52.3183V52.2773V52.2362V52.1951V52.154V52.1129V52.0718V52.0306V51.9894V51.9482V51.907V51.8658V51.8246V51.7833V51.7421V51.7008V51.6595V51.6183V51.577V51.5357V51.4944V51.4531V51.4118V51.3706V51.3293V51.288V51.2468V51.2055V51.1643V51.123V51.0818V51.0406V50.9994V50.9582V50.917V50.8758V50.8347V50.7936V50.7525V50.7114V50.6704V50.6293V50.5883V50.5474V50.5064V50.4655V50.4246V50.3837V50.3429V50.3021V50.2614V50.2207V50.18V50.1394V50.0988V50.0582V50.0177V49.9772V49.9368V49.8964V49.8561V49.8158V49.7756V49.7354V49.6953V49.6552V49.6152V49.5753V49.5354V49.4955V49.4558V49.416V49.3764V49.3368V49.2973V49.2578V49.2184V49.1791V49.1399V49.1007V49.0616V49.0226V48.9836V48.9447V48.9059V48.8672V48.8286V48.79V48.7515V48.7132V48.6748V48.6366V48.5985V48.5605V48.5225V48.4846V48.4469V48.4092V48.3716V48.3341V48.2968V48.2595V48.2223V48.1852V48.1482V48.1114V48.0746V48.0379V48.0014V47.9649V47.9286V47.8924V47.8563V47.8203V47.7844V47.7486V47.713V47.6774V47.642V47.6067V47.5716V47.5365V47.5016V47.4668V47.4322V47.3976V47.3632V47.329V47.2948V47.2608V47.227V47.1932V47.1596V47.1262V47.0929V47.0597V47.0266V46.9938V46.961V46.9284V46.896V46.8637V46.8315V46.7995V46.7677V46.736V46.7044V46.6731V46.6418V46.6108V46.5799V46.5491V46.5185V46.4881V46.4579V46.4278V46.3979V46.3681V46.3385V46.3091V46.2799V46.2508V46.2219V46.1932V46.1647V46.1363V46.1082V46.0802V46.0524V46.0247V45.9973V45.97V45.943V45.9161V45.8894V45.8629V45.8366V45.8105V45.7845V45.7588V45.7333V45.708V45.6828V45.6579V45.6332V45.6087V45.5843V45.5602V45.5363V45.5126V45.4891V45.4659V45.4428V45.42V45.3973V45.3749V45.3527V45.3307V45.309V45.2874V45.2661V45.245V45.2241V45.2035V45.1831V45.1629V45.1429V45.1232V45.1037V45.0844V45.0654V45.0466V45.028V45.0097V44.9917V44.9738V44.9562V44.9389V44.9218V44.9049V44.8883V44.8719V44.8558V44.8399V44.8243V44.809V44.7938V44.779V44.7644V44.7501V44.736V44.7222V44.7086V44.6953V44.6823V44.6695V44.6571V44.6448V44.6329V44.6212V44.6098V44.5986V44.5878V44.5772V44.5669V44.5568V44.5471V44.5376V44.5284V44.5195V44.5109V44.5025V44.4945V44.4867V44.4792V44.472V44.4651V44.4585V44.4522V44.4462V44.4405V44.4351V44.43V44.4252V44.4207V44.4164V44.4125V44.4089V44.4056V44.4026V44.4V44.3976V44.3955V44.3938V44.3924V44.3913V44.3905V44.39C115.5 44.3899 115.5 44.3899 115.58 44.3899C115.648 44.3898 115.772 44.3898 116 44.3898H115.5C115.5 43.155 115.5 41.9217 115.493 40.6887C115.487 39.6502 115.475 38.6143 115.447 37.5796C115.386 35.322 115.253 33.0662 114.857 30.8627L115.349 30.7742L114.857 30.8627C114.455 28.6316 113.802 26.5637 112.775 24.5474C111.765 22.5645 110.446 20.7498 108.871 19.1765L109.225 18.8228L108.871 19.1765C107.297 17.6032 105.482 16.2845 103.498 15.2751C101.48 14.248 99.4099 13.5949 97.1762 13.1939L97.2646 12.702L97.1762 13.1939C94.9725 12.7982 92.716 12.6656 90.4583 12.6046L90.4718 12.1048L90.4583 12.6046C89.4229 12.5766 88.3865 12.5647 87.3474 12.5583C86.2019 12.5513 85.0562 12.5513 83.9088 12.5514L83.6444 12.5514H83.6426L69.3005 12.5H69.2997H58.5734H58.5725L44.4843 12.5514L44.4825 12.5514L44.2175 12.5514C43.0679 12.5513 41.92 12.5513 40.7723 12.5583L116 83.617ZM116 83.617H115.5C115.5 84.8536 115.5 86.0886 115.493 87.3232C115.487 88.3629 115.475 89.4002 115.447 90.4365C115.386 92.6962 115.253 94.9545 114.857 97.1601C114.456 99.3959 113.802 101.468 112.775 103.488C111.765 105.473 110.445 107.29 108.871 108.865L108.871 108.865C107.297 110.441 105.481 111.762 103.497 112.773C101.48 113.8 99.4109 114.454 97.1787 114.856C94.974 115.252 92.7168 115.385 90.4583 115.446C89.4229 115.474 88.3864 115.486 87.3475 115.493C86.1138 115.5 84.88 115.5 83.6444 115.5H69.4545H58.6998H44.4825C43.2444 115.5 42.0083 115.5 40.7723 115.493C39.7312 115.486 38.6927 115.474 37.6552 115.446C35.3931 115.385 33.1323 115.252 30.9242 114.856L30.8359 115.348L30.9242 114.856C28.6861 114.455 26.6117 113.801 24.5893 112.772C22.6017 111.761 20.7829 110.441 19.2056 108.865C17.6283 107.289 16.306 105.472 15.294 103.487C14.2652 101.468 13.6108 99.3967 13.2087 97.1626C12.8117 94.9561 12.6786 92.6971 12.6174 90.4365C12.5894 89.4003 12.5773 88.363 12.571 87.3231C12.5641 86.1621 12.5641 85.001 12.5641 83.8381L12.5641 83.617L12.5641 83.6147L12.5 69.427V69.4258V58.584V44.6892C12.5 44.0788 12.5157 43.3926 12.5325 42.6997L12.5362 42.5486C12.5519 41.9081 12.5675 41.2664 12.571 40.6888L12.571 40.6888C12.5773 39.6505 12.5894 38.6145 12.6173 37.5797L116 83.617ZM37.6552 12.6046L37.6552 12.6046C35.3922 12.6656 33.1306 12.7983 30.9215 13.1945L30.9214 13.1945C28.6847 13.5955 26.6113 14.2484 24.5901 15.2748M37.6552 12.6046L12.6173 37.5796C12.6786 35.3229 12.8114 33.068 13.2081 30.8655C13.6102 28.6332 14.2648 26.5641 15.2943 24.547L15.2943 24.547C16.3062 22.5644 17.6282 20.75 19.2053 19.1768L19.2053 19.1768C20.7827 17.6032 22.602 16.2844 24.5901 15.2748M37.6552 12.6046C38.6926 12.5766 39.731 12.5647 40.7722 12.5583L37.6552 12.6046ZM24.5901 15.2748L24.3637 14.8289L24.5901 15.2748Z" stroke="black"/>
</g>
</g>
<defs>
<filter id="filter0_d_42_225" x="8" y="10" width="112" height="112" filterUnits="userSpaceOnUse" color-interpolation-filters="sRGB">
<feFlood flood-opacity="0" result="BackgroundImageFix"/>
<feColorMatrix in="SourceAlpha" type="matrix" values="0 0 0 0 0 0 0 0 0 0 0 0 0 0 0 0 0 0 127 0" result="hardAlpha"/>
<feOffset dy="2"/>
<feGaussianBlur stdDeviation="2"/>
<feColorMatrix type="matrix" values="0 0 0 0 0 0 0 0 0 0 0 0 0 0 0 0 0 0 0.15 0"/>
<feBlend mode="normal" in2="BackgroundImageFix" result="effect1_dropShadow_42_225"/>
<feBlend mode="normal" in="SourceGraphic" in2="effect1_dropShadow_42_225" result="shape"/>
</filter>
<filter id="filter1_ddiii_42_225" x="16" y="26" width="96" height="76" filterUnits="userSpaceOnUse" color-interpolation-filters="sRGB">
<feFlood flood-opacity="0" result="BackgroundImageFix"/>
<feColorMatrix in="SourceAlpha" type="matrix" values="0 0 0 0 0 0 0 0 0 0 0 0 0 0 0 0 0 0 127 0" result="hardAlpha"/>
<feOffset dy="2"/>
<feGaussianBlur stdDeviation="2"/>
<feColorMatrix type="matrix" values="0 0 0 0 0 0 0 0 0 0 0 0 0 0 0 0 0 0 0.2 0"/>
<feBlend mode="normal" in2="BackgroundImageFix" result="effect1_dropShadow_42_225"/>
<feColorMatrix in="SourceAlpha" type="matrix" values="0 0 0 0 0 0 0 0 0 0 0 0 0 0 0 0 0 0 127 0" result="hardAlpha"/>
<feOffset/>
<feGaussianBlur stdDeviation="6"/>
<feColorMatrix type="matrix" values="0 0 0 0 0.117647 0 0 0 0 0.243137 0 0 0 0 0.494118 0 0 0 0.2 0"/>
<feBlend mode="normal" in2="effect1_dropShadow_42_225" result="effect2_dropShadow_42_225"/>
<feBlend mode="normal" in="SourceGraphic" in2="effect2_dropShadow_42_225" result="shape"/>
<feColorMatrix in="SourceAlpha" type="matrix" values="0 0 0 0 0 0 0 0 0 0 0 0 0 0 0 0 0 0 127 0" result="hardAlpha"/>
<feOffset/>
<feGaussianBlur stdDeviation="4"/>
<feComposite in2="hardAlpha" operator="arithmetic" k2="-1" k3="1"/>
<feColorMatrix type="matrix" values="0 0 0 0 1 0 0 0 0 1 0 0 0 0 1 0 0 0 0.25 0"/>
<feBlend mode="normal" in2="shape" result="effect3_innerShadow_42_225"/>
<feColorMatrix in="SourceAlpha" type="matrix" values="0 0 0 0 0 0 0 0 0 0 0 0 0 0 0 0 0 0 127 0" result="hardAlpha"/>
<feOffset dy="2"/>
<feGaussianBlur stdDeviation="1"/>
<feComposite in2="hardAlpha" operator="arithmetic" k2="-1" k3="1"/>
<feColorMatrix type="matrix" values="0 0 0 0 1 0 0 0 0 1 0 0 0 0 1 0 0 0 0.25 0"/>
<feBlend mode="normal" in2="effect3_innerShadow_42_225" result="effect4_innerShadow_42_225"/>
<feColorMatrix in="SourceAlpha" type="matrix" values="0 0 0 0 0 0 0 0 0 0 0 0 0 0 0 0 0 0 127 0" result="hardAlpha"/>
<feOffset dy="-1"/>
<feGaussianBlur stdDeviation="1"/>
<feComposite in2="hardAlpha" operator="arithmetic" k2="-1" k3="1"/>
<feColorMatrix type="matrix" values="0 0 0 0 0 0 0 0 0 0 0 0 0 0 0 0 0 0 0.25 0"/>
<feBlend mode="normal" in2="effect4_innerShadow_42_225" result="effect5_innerShadow_42_225"/>
</filter>
<filter id="filter2_ddi_42_225" x="24" y="52" width="80" height="40" filterUnits="userSpaceOnUse" color-interpolation-filters="sRGB">
<feFlood flood-opacity="0" result="BackgroundImageFix"/>
<feColorMatrix in="SourceAlpha" type="matrix" values="0 0 0 0 0 0 0 0 0 0 0 0 0 0 0 0 0 0 127 0" result="hardAlpha"/>
<feOffset dy="1"/>
<feGaussianBlur stdDeviation="1"/>
<feColorMatrix type="matrix" values="0 0 0 0 0 0 0 0 0 0 0 0 0 0 0 0 0 0 0.8 0"/>
<feBlend mode="normal" in2="BackgroundImageFix" result="effect1_dropShadow_42_225"/>
<feColorMatrix in="SourceAlpha" type="matrix" values="0 0 0 0 0 0 0 0 0 0 0 0 0 0 0 0 0 0 127 0" result="hardAlpha"/>
<feOffset/>
<feGaussianBlur stdDeviation="2"/>
<feColorMatrix type="matrix" values="0 0 0 0 0.117647 0 0 0 0 0.243137 0 0 0 0 0.494118 0 0 0 0.9 0"/>
<feBlend mode="normal" in2="effect1_dropShadow_42_225" result="effect2_dropShadow_42_225"/>
<feBlend mode="normal" in="SourceGraphic" in2="effect2_dropShadow_42_225" result="shape"/>
<feColorMatrix in="SourceAlpha" type="matrix" values="0 0 0 0 0 0 0 0 0 0 0 0 0 0 0 0 0 0 127 0" result="hardAlpha"/>
<feOffset/>
<feGaussianBlur stdDeviation="4"/>
<feComposite in2="hardAlpha" operator="arithmetic" k2="-1" k3="1"/>
<feColorMatrix type="matrix" values="0 0 0 0 1 0 0 0 0 1 0 0 0 0 1 0 0 0 0.25 0"/>
<feBlend mode="normal" in2="shape" result="effect3_innerShadow_42_225"/>
</filter>
<filter id="filter3_ddi_42_225" x="20" y="32" width="88" height="48.7619" filterUnits="userSpaceOnUse" color-interpolation-filters="sRGB">
<feFlood flood-opacity="0" result="BackgroundImageFix"/>
<feColorMatrix in="SourceAlpha" type="matrix" values="0 0 0 0 0 0 0 0 0 0 0 0 0 0 0 0 0 0 127 0" result="hardAlpha"/>
<feOffset dy="1"/>
<feGaussianBlur stdDeviation="1"/>
<feColorMatrix type="matrix" values="0 0 0 0 0 0 0 0 0 0.0753989 0 0 0 0 0.225 0 0 0 0.3 0"/>
<feBlend mode="normal" in2="BackgroundImageFix" result="effect1_dropShadow_42_225"/>
<feColorMatrix in="SourceAlpha" type="matrix" values="0 0 0 0 0 0 0 0 0 0 0 0 0 0 0 0 0 0 127 0" result="hardAlpha"/>
<feOffset/>
<feGaussianBlur stdDeviation="4"/>
<feColorMatrix type="matrix" values="0 0 0 0 0.117647 0 0 0 0 0.243137 0 0 0 0 0.494118 0 0 0 0.5 0"/>
<feBlend mode="normal" in2="effect1_dropShadow_42_225" result="effect2_dropShadow_42_225"/>
<feBlend mode="normal" in="SourceGraphic" in2="effect2_dropShadow_42_225" result="shape"/>
<feColorMatrix in="SourceAlpha" type="matrix" values="0 0 0 0 0 0 0 0 0 0 0 0 0 0 0 0 0 0 127 0" result="hardAlpha"/>
<feOffset/>
<feGaussianBlur stdDeviation="4"/>
<feComposite in2="hardAlpha" operator="arithmetic" k2="-1" k3="1"/>
<feColorMatrix type="matrix" values="0 0 0 0 1 0 0 0 0 1 0 0 0 0 1 0 0 0 0.25 0"/>
<feBlend mode="normal" in2="shape" result="effect3_innerShadow_42_225"/>
</filter>
<linearGradient id="paint0_linear_42_225" x1="64" y1="12" x2="64" y2="116" gradientUnits="userSpaceOnUse">
<stop stop-color="#2E6DEA"/>
<stop offset="1" stop-color="#3ED4F9"/>
</linearGradient>
<linearGradient id="paint1_linear_42_225" x1="58.7726" y1="41.4667" x2="58.7726" y2="86.5334" gradientUnits="userSpaceOnUse">
<stop stop-color="white"/>
<stop offset="1" stop-color="white" stop-opacity="0.8"/>
</linearGradient>
<linearGradient id="paint2_linear_42_225" x1="136" y1="93.1429" x2="136" y2="120.571" gradientUnits="userSpaceOnUse">
<stop stop-opacity="0"/>
<stop offset="0.140625" stop-opacity="0.256"/>
<stop offset="0.59375" stop-opacity="0.64"/>
<stop offset="0.671875" stop-opacity="0"/>
</linearGradient>
<linearGradient id="paint3_linear_42_225" x1="64" y1="88" x2="64" y2="55.8571" gradientUnits="userSpaceOnUse">
<stop stop-color="white"/>
<stop offset="1" stop-color="white" stop-opacity="0.2"/>
</linearGradient>
<linearGradient id="paint4_linear_42_225" x1="64" y1="45.1429" x2="64" y2="71.7143" gradientUnits="userSpaceOnUse">
<stop stop-opacity="0"/>
<stop offset="1"/>
</linearGradient>
<linearGradient id="paint5_linear_42_225" x1="64" y1="40" x2="64" y2="81.1429" gradientUnits="userSpaceOnUse">
<stop stop-color="white"/>
<stop offset="1" stop-color="white" stop-opacity="0.2"/>
</linearGradient>
</defs>
</svg>
